<svg id="Layer_1" data-name="Layer 1" xmlns="http://www.w3.org/2000/svg" viewBox="0 0 74 46"><defs><style>.cls-1{fill:#fff;}.cls-2,.cls-3{fill:none;}.cls-3{stroke:#000;stroke-miterlimit:10;}</style></defs><title>computer</title><rect class="cls-1" x="1.5" y="1.5" width="61" height="33"/><path d="M72,28V58H14V28H72m2-3H12a1,1,0,0,0-1,1V60a1,1,0,0,0,1,1H74a1,1,0,0,0,1-1V26a1,1,0,0,0-1-1Z" transform="translate(-11 -25)"/><rect x="53.5" y="12.5" width="20" height="33" rx="0.5"/><path d="M84,38V70H65V38H84m0-1H65a1,1,0,0,0-1,1V70a1,1,0,0,0,1,1H84a1,1,0,0,0,1-1V38a1,1,0,0,0-1-1Z" transform="translate(-11 -25)"/><path class="cls-2" d="M42.5,42.5" transform="translate(-11 -25)"/><path class="cls-3" d="M44.5,68.5" transform="translate(-11 -25)"/><path d="M46.5,60.5a1,1,0,0,1,1,1v6a1,1,0,0,0,1,1h4a1,1,0,0,1,1,1h0a1,1,0,0,1-1,1h-20a1,1,0,0,1-1-1h0a1,1,0,0,1,1-1h4a1,1,0,0,0,1-1v-6a1,1,0,0,1,1-1Z" transform="translate(-11 -25)"/><path class="cls-3" d="M46.5,60.5a1,1,0,0,1,1,1v6a1,1,0,0,0,1,1h4a1,1,0,0,1,1,1h0a1,1,0,0,1-1,1h-20a1,1,0,0,1-1-1h0a1,1,0,0,1,1-1h4a1,1,0,0,0,1-1v-6a1,1,0,0,1,1-1Z" transform="translate(-11 -25)"/><circle class="cls-1" cx="70.5" cy="15.5" r="2"/><path class="cls-1" d="M81.5,39A1.5,1.5,0,1,1,80,40.5,1.5,1.5,0,0,1,81.5,39m0-1A2.5,2.5,0,1,0,84,40.5,2.5,2.5,0,0,0,81.5,38Z" transform="translate(-11 -25)"/><circle class="cls-1" cx="63.5" cy="15.5" r="2"/><path class="cls-1" d="M74.5,39A1.5,1.5,0,1,1,73,40.5,1.5,1.5,0,0,1,74.5,39m0-1A2.5,2.5,0,1,0,77,40.5,2.5,2.5,0,0,0,74.5,38Z" transform="translate(-11 -25)"/><rect class="cls-1" x="54.5" y="21" width="18" height="3" rx="0.5"/><path class="cls-1" d="M83,46.5v2H66v-2H83m0-1H66a1,1,0,0,0-1,1v2a1,1,0,0,0,1,1H83a1,1,0,0,0,1-1v-2a1,1,0,0,0-1-1Z" transform="translate(-11 -25)"/><circle class="cls-1" cx="56.5" cy="15.5" r="2"/><path class="cls-1" d="M67.5,39A1.5,1.5,0,1,1,66,40.5,1.5,1.5,0,0,1,67.5,39m0-1A2.5,2.5,0,1,0,70,40.5,2.5,2.5,0,0,0,67.5,38Z" transform="translate(-11 -25)"/><rect class="cls-1" x="54.5" y="27" width="18" height="3" rx="0.5"/><path class="cls-1" d="M83,52.5v2H66v-2H83m0-1H66a1,1,0,0,0-1,1v2a1,1,0,0,0,1,1H83a1,1,0,0,0,1-1v-2a1,1,0,0,0-1-1Z" transform="translate(-11 -25)"/></svg>